<svg width="24" height="23" viewBox="0 0 24 23" fill="none" xmlns="http://www.w3.org/2000/svg">
<path d="M11.9839 0.0664062C5.83521 0.0664062 0.84082 1.62856 0.84082 3.55128C0.840914 4.60081 2.36004 5.54769 4.71101 6.18659C3.89505 5.76894 3.42054 5.28584 3.42054 4.75831C3.42054 3.25231 7.25257 2.01472 11.9839 2.01472C16.7153 2.01472 20.5738 3.25222 20.5738 4.75831C20.5738 5.28303 20.091 5.77034 19.2833 6.18659C21.6197 5.54783 23.1256 4.59706 23.1256 3.55128C23.1256 1.62856 18.1327 0.0664062 11.9839 0.0664062ZM6.91273 3.83253V5.24319H17.0509V3.83253H6.91273ZM7.11776 6.11909V15.9659H7.99371V6.11914H7.1178L7.11776 6.11909ZM8.95174 6.11909C8.98446 9.01653 10.1389 10.6395 11.4272 10.9854C10.1219 11.3358 8.95334 12.9963 8.9502 15.9658H14.959C14.9559 12.9962 13.7894 11.3362 12.4849 10.9854C13.7725 10.6392 14.9248 9.01672 14.9576 6.11914H8.9517L8.95174 6.11909ZM15.8862 6.11909V15.9659H16.7622V6.11914H15.8862V6.11909ZM4.71101 15.9088C2.36009 16.5475 0.840867 17.4944 0.840867 18.5439C0.840867 20.4666 5.83521 22.0288 11.984 22.0288C18.1328 22.0288 23.1256 20.4667 23.1256 18.544C23.1256 17.4982 21.6197 16.5475 19.2832 15.9087C20.091 16.325 20.5738 16.8108 20.5738 17.3355C20.5738 18.8416 16.7154 20.0806 11.9839 20.0806C7.25252 20.0806 3.42054 18.8414 3.42054 17.3354C3.42054 16.8079 3.89505 16.3263 4.71101 15.9087V15.9088ZM6.91273 16.8418V18.251H17.0509V16.8418H6.91273Z" fill="white"/>
</svg>
